<?xml version="1.0" encoding="UTF-8"?>
<svg width="107px" height="27px" viewBox="0 0 107 27" version="1.1" xmlns="http://www.w3.org/2000/svg" xmlns:xlink="http://www.w3.org/1999/xlink">
    <!-- Generator: Sketch 53 (72520) - https://sketchapp.com -->
    <title>logo</title>
    <desc>Created with Sketch.</desc>
    <g id="logo" stroke="none" stroke-width="1" fill="none" fill-rule="evenodd">
        <g id="Hilite_logo" fill-rule="nonzero">
            <g id="logo-(2)-copy">
                <g id="logo-mini">
                    <path d="M1.27159529e-07,-5.32907052e-15 L5.97786085,-5.32907052e-15 C13.2896307,-6.64796034e-15 19.2169912,5.82029826 19.2169912,13 L19.2169912,13 C19.2169912,20.1797018 13.2896307,26 5.97786085,26 L1.27159529e-07,26 L1.27159529e-07,-5.32907052e-15 Z" id="Rectangle-Copy-4" fill="#02DE84" transform="translate(9.608496, 13.000000) scale(-1, 1) translate(-9.608496, -13.000000) "></path>
                    <path d="M13.9759936,10.7586207 L21.0646172,10.7586207 C25.3508271,10.7586207 28.8254867,14.1705196 28.8254867,18.3793104 L28.8254867,18.3793104 C28.8254867,22.588101 25.3508271,26 21.0646172,26 L13.9759936,26 L13.9759936,10.7586207 Z" id="Rectangle-Copy-5" fill="#8200FF" opacity="0.851376488"></path>
                    <rect id="Rectangle-Copy-6" fill="#21BB7C" x="13.9759936" y="0" width="5.24099759" height="10.7586207"></rect>
                    <rect id="Rectangle-Copy-7" fill="#A042FF" x="13.9759936" y="10.7586207" width="5.24099759" height="15.2413793"></rect>
                </g>
            </g>
            <path d="M47.652,26 L44.506,26 L44.506,19.818 L37.576,19.818 L37.576,26 L34.452,26 L34.452,11.326 L37.576,11.326 L37.576,17.09 L44.506,17.09 L44.506,11.326 L47.652,11.326 L47.652,26 Z M51.854,14.23 C50.952,14.23 50.204,13.482 50.204,12.558 C50.204,11.634 50.952,10.908 51.854,10.908 C52.778,10.908 53.526,11.634 53.526,12.558 C53.526,13.482 52.778,14.23 51.854,14.23 Z M53.262,26 L50.468,26 L50.468,15.374 L53.262,15.374 L53.262,26 Z M58.828,26 L56.034,26 L56.034,11.326 L58.828,11.326 L58.828,26 Z M62.986,14.23 C62.084,14.23 61.336,13.482 61.336,12.558 C61.336,11.634 62.084,10.908 62.986,10.908 C63.91,10.908 64.658,11.634 64.658,12.558 C64.658,13.482 63.91,14.23 62.986,14.23 Z M64.394,26 L61.6,26 L61.6,15.374 L64.394,15.374 L64.394,26 Z M70.73,26.264 C68.772,26.264 67.738,25.252 67.738,23.338 L67.738,17.816 L65.978,17.816 L65.978,15.374 L67.738,15.374 L67.738,12.47 L70.532,12.47 L70.532,15.374 L72.688,15.374 L72.688,17.816 L70.532,17.816 L70.532,22.59 C70.532,23.272 70.884,23.778 71.5,23.778 C71.918,23.778 72.314,23.624 72.468,23.448 L73.062,25.582 C72.644,25.956 71.896,26.264 70.73,26.264 Z M79.596,26.264 C76.362,26.264 73.92,24.086 73.92,20.676 C73.92,17.596 76.208,15.11 79.42,15.11 C82.61,15.11 84.744,17.486 84.744,20.94 L84.744,21.6 L76.846,21.6 C77.044,22.898 78.1,23.976 79.904,23.976 C80.806,23.976 82.038,23.602 82.72,22.942 L83.974,24.79 C82.918,25.758 81.246,26.264 79.596,26.264 Z M82.06,19.664 C81.972,18.652 81.268,17.398 79.42,17.398 C77.682,17.398 76.934,18.608 76.824,19.664 L82.06,19.664 Z M93.456,26.264 C88.99,26.264 86.834,23.756 86.834,20.126 L86.834,11.326 L90.002,11.326 L90.002,20.038 C90.002,22.084 91.19,23.492 93.456,23.492 C95.722,23.492 96.888,22.084 96.888,20.038 L96.888,11.326 L100.078,11.326 L100.078,20.126 C100.078,23.756 97.922,26.264 93.456,26.264 Z M106.106,26 L102.982,26 L102.982,11.326 L106.106,11.326 L106.106,26 Z" id="HiliteUI" fill="#000000"></path>
        </g>
    </g>
</svg>