<?xml version="1.0" standalone="no"?><!DOCTYPE svg PUBLIC "-//W3C//DTD SVG 1.1//EN" "http://www.w3.org/Graphics/SVG/1.1/DTD/svg11.dtd"><svg t="1571626295817" class="icon" viewBox="0 0 1024 1024" version="1.1" xmlns="http://www.w3.org/2000/svg" p-id="2239" xmlns:xlink="http://www.w3.org/1999/xlink" width="200" height="200"><defs><style type="text/css"></style></defs><path d="M930.772 598.012l-57.224-145.08H802.8l-56.956 145.08-143.064-62.108-43.524 43.524-6.36 6.628 62.016 142.704-144.856 56.912v70.792l144.9 57.092-41.824 96.272h370.756c44.152 0 80.108-35.912 80.108-80.064v-372.276l-93.224 40.524z m79.796 331.756c0 36.764-29.912 66.632-66.672 66.632h-350.248l39.136-90.272-149.288-58.792v-52.524l149.332-58.612-64.076-147.272 37.076-37.076 147.452 64.032 58.66-149.512h52.48l58.928 149.468 87.228-37.836v351.764z" fill="#4A555F" p-id="2240"></path><path d="M914.744 636.704l-60.988-154.66h-31.12l-60.72 154.66-152.556-66.228-21.984 21.984 66.272 152.38-154.48 60.672v31.164l154.48 60.808-46.752 105.624 337 0.008c44.2 0 73.392-35.392 73.392-73.344l-0.02-338.992-102.524 45.924z m-72.452 332.292c-49.612 0-96.092-26.552-121.168-69.092-12.94-21.496-19.792-46.3-19.792-71.688 0-77.732 63.224-140.96 140.96-140.96 24.536 0 48.672 6.448 69.672 18.54 43.972 25.028 71.284 71.912 71.284 122.42 0.004 77.552-63.22 140.732-140.956 140.78z" fill="#FFD552" p-id="2241"></path><path d="M340.208 123.504l5.368-13.288a54.72 54.72 0 0 0 3.976-20.624c0-9.848-2.58-19.484-7.464-27.872l-8.46-14.532h610.228c25.96 0 47.08 21.088 47.08 47.008v29.308H340.208zM72.304 123.504l-5.368-13.288a54.72 54.72 0 0 1-3.976-20.624c0-9.848 2.58-19.484 7.464-27.872l8.456-14.532c-25.96 0-43.484 21.088-43.484 47.008v29.308h36.908z" fill="#F68F6F" p-id="2242"></path><path d="M13.432 142.472h997.112v13.432H13.432zM116.112 125.88c-20.016 0-36.3-16.284-36.3-36.304s16.284-36.304 36.3-36.304 36.304 16.284 36.304 36.304-16.288 36.304-36.304 36.304z m0-59.172c-12.608 0-22.868 10.26-22.868 22.868s10.26 22.868 22.868 22.868c12.612 0 22.868-10.26 22.868-22.868s-10.256-22.868-22.868-22.868zM204.872 125.88c-20.016 0-36.3-16.284-36.3-36.304 0-20.016 16.284-36.3 36.3-36.3 20.02 0 36.304 16.284 36.304 36.3 0 20.02-16.288 36.304-36.304 36.304z m0-59.172c-12.608 0-22.868 10.26-22.868 22.868s10.26 22.868 22.868 22.868c12.612 0 22.868-10.26 22.868-22.868s-10.256-22.868-22.868-22.868zM293.632 125.88c-20.016 0-36.304-16.284-36.304-36.304 0-20.016 16.288-36.3 36.304-36.3s36.304 16.284 36.304 36.3c-0.004 20.02-16.288 36.304-36.304 36.304z m0-59.172c-12.612 0-22.868 10.26-22.868 22.868s10.26 22.868 22.868 22.868 22.868-10.26 22.868-22.868-10.26-22.868-22.868-22.868z" fill="#4A555F" p-id="2243"></path><path d="M943.892 1009.824H80.084C35.928 1009.824 0 973.92 0 929.788V94.208c0-13.348 3.34-26.54 9.664-38.156a80 80 0 0 1 13.812-18.404 80.756 80.756 0 0 1 11.768-9.776 82.324 82.324 0 0 1 13.664-7.372 79.588 79.588 0 0 1 31.176-6.328h863.808c10.76 0 21.248 2.132 31.18 6.332a80.54 80.54 0 0 1 13.58 7.316 81.16 81.16 0 0 1 11.884 9.864 79.94 79.94 0 0 1 13.78 18.376 80 80 0 0 1 9.66 38.148v835.58c0.004 44.132-35.924 80.036-80.084 80.036zM80.084 27.604c-8.952 0-17.68 1.772-25.944 5.268-3.948 1.668-7.768 3.724-11.364 6.12a66.86 66.86 0 0 0-9.764 8.116 66.852 66.852 0 0 0-11.548 15.356 66.58 66.58 0 0 0-8.032 31.744v835.58c0 36.724 29.9 66.604 66.652 66.604h863.808c36.752 0 66.652-29.88 66.652-66.604V94.208c0-11.112-2.776-22.084-8.028-31.736a66.86 66.86 0 0 0-11.512-15.328 67.552 67.552 0 0 0-9.884-8.204 67.08 67.08 0 0 0-11.256-6.056 66.292 66.292 0 0 0-25.976-5.284H80.084z" fill="#4A555F" p-id="2244"></path><path d="M340.208 123.504l5.368-13.288a54.72 54.72 0 0 0 3.976-20.624c0-9.848-2.58-19.484-7.464-27.872l-8.46-14.532h610.228c25.96 0 47.08 21.088 47.08 47.008v29.308H340.208zM72.304 123.504l-5.368-13.288a54.72 54.72 0 0 1-3.976-20.624c0-9.848 2.58-19.484 7.464-27.872l8.456-14.532c-25.96 0-43.484 21.088-43.484 47.008v29.308h36.908z" fill="#F68F6F" p-id="2245"></path><path d="M13.432 142.472h997.112v13.432H13.432zM116.112 125.88c-20.016 0-36.3-16.284-36.3-36.304s16.284-36.304 36.3-36.304 36.304 16.284 36.304 36.304-16.288 36.304-36.304 36.304z m0-59.172c-12.608 0-22.868 10.26-22.868 22.868s10.26 22.868 22.868 22.868c12.612 0 22.868-10.26 22.868-22.868s-10.256-22.868-22.868-22.868zM204.872 125.88c-20.016 0-36.3-16.284-36.3-36.304 0-20.016 16.284-36.3 36.3-36.3 20.02 0 36.304 16.284 36.304 36.3 0 20.02-16.288 36.304-36.304 36.304z m0-59.172c-12.608 0-22.868 10.26-22.868 22.868s10.26 22.868 22.868 22.868c12.612 0 22.868-10.26 22.868-22.868s-10.256-22.868-22.868-22.868zM293.632 125.88c-20.016 0-36.304-16.284-36.304-36.304 0-20.016 16.288-36.3 36.304-36.3s36.304 16.284 36.304 36.3c-0.004 20.02-16.288 36.304-36.304 36.304z m0-59.172c-12.612 0-22.868 10.26-22.868 22.868s10.26 22.868 22.868 22.868 22.868-10.26 22.868-22.868-10.26-22.868-22.868-22.868z" fill="#4A555F" p-id="2246"></path><path d="M385.12 327.684h520.864v13.432H385.12z" fill="#4A555F" p-id="2247"></path><path d="M126.924 454.624h535.36v13.432H126.924z" fill="#4A555F" p-id="2248"></path><path d="M126.924 581.944h305.04v13.432h-305.04z" fill="#4A555F" p-id="2249"></path><path d="M126.924 715.968h260.228v13.432H126.924z" fill="#4A555F" p-id="2250"></path><path d="M126.924 856.544h260.228v13.432H126.924z" fill="#4A555F" p-id="2251"></path><path d="M255.332 230.74H217.44v112.628h13.432V297.336h24.456c18.36 0 33.3-14.936 33.3-33.3s-14.936-33.296-33.296-33.296z m0 53.164h-24.456v-39.732h24.456a19.888 19.888 0 0 1 19.864 19.864 19.888 19.888 0 0 1-19.864 19.868zM159.624 231.156c-19.264 0-34.936 15.672-34.936 34.936v77.276h13.432V298.864h43v44.504h13.432V266.092c0.004-19.264-15.668-34.936-34.928-34.936zM138.12 285.428v-19.34a21.524 21.524 0 0 1 21.5-21.5 21.524 21.524 0 0 1 21.5 21.5v19.34H138.12z" fill="#4A555F" p-id="2252"></path><path d="M316.7 234.924h13.432v108.44h-13.432z" fill="#4A555F" p-id="2253"></path><path d="M842.252 952.444c-68.596 0-124.4-55.78-124.4-124.34s55.804-124.336 124.4-124.336 124.4 55.776 124.4 124.336-55.804 124.34-124.4 124.34z m0-235.244c-61.188 0-110.968 49.752-110.968 110.904 0 61.152 49.78 110.904 110.968 110.904s110.968-49.752 110.968-110.904c0-61.152-49.78-110.904-110.968-110.904z" fill="#4A555F" p-id="2254"></path></svg>