<?xml version="1.0" standalone="no"?><!DOCTYPE svg PUBLIC "-//W3C//DTD SVG 1.1//EN" "http://www.w3.org/Graphics/SVG/1.1/DTD/svg11.dtd"><svg t="1571624974955" class="icon" viewBox="0 0 1024 1024" version="1.1" xmlns="http://www.w3.org/2000/svg" p-id="789" xmlns:xlink="http://www.w3.org/1999/xlink" width="200" height="200"><defs><style type="text/css"></style></defs><path d="M256 128h512c70.7 0 128 57.3 128 128v512c0 70.7-57.3 128-128 128H256c-70.7 0-128-57.3-128-128V256c0-70.7 57.3-128 128-128z" fill="#B0BEC5" p-id="790"></path><path d="M256 128h512c70.5 0 128 57.5 128 128v64H128V256c0-70.5 57.5-128 128-128z" fill="#263238" p-id="791"></path><path d="M686 579h8.5v0.5h1l-0.5 16.5 0.5 16.5h-1v0.5h-8.5c-9.5 0.5-20.5 2-28.5 7.5-5.5 4-9 9-11.5 15-3 7.5 1.5 34 2.5 42.5 5.5 38.5 14.5 93.5-26.5 117.5-7 4-15 7-23.5 9-9.5 2-19.5 3-29 3.5l-9 0.5-1-33.5 9-0.5c7.5 0 15-1 22-2.5 4.5-1 9-2.5 13-4.5 2-1 3.5-2.5 5.5-4.5 15-16.5 8-59 5-80-2.5-17-7-43.5-0.5-59.5 4.5-10.5 11-19.5 19.5-26.5-9-7-15.5-16-19.5-26.5-7-16-2-42.5 0.5-59.5 1-6.5 2-13 2.5-19.5 2-17.5 6-53.5-13-64.5-4-2.5-8.5-4-13-4.5-7-1.5-15-2-22-2.5l-9-0.5 1-33.5 9 0.5c9.5 0.5 19.5 1 29 3.5 8 2 16 4.5 23.5 9 41 24 32 79 26.5 117.5-1 8.5-5.5 35-2.5 42.5 2.5 6 6 11 11.5 15 8 5.5 18.5 7.5 28.5 7.5v-2.5z m-295 17c9 7 15.5 16 19.5 26.5 7 16 2 42.5-0.5 59.5-1 6.5-2 13-2.5 19.5-2 17.5-6 53.5 13 64.5 4 2.5 8.5 4 13 4.5 7 1.5 15 2 22 2.5l9 0.5-1 33.5-9-0.5c-9.5-0.5-19.5-1-29-3.5-8-2-16-4.5-23.5-9-41-24-32-79-26.5-117.5 1-8.5 5.5-35 2.5-42.5-2.5-6-6-11-11.5-15-8-5.5-18.5-7.5-28.5-7.5h-8.5v-0.5h-1l0.5-16.5-0.5-16.5h1v-0.5h8.5c9.5-0.5 20.5-2 28.5-7.5 5.5-4 9-9 11.5-15 3-7.5-1.5-34-2.5-42.5-5.5-38.5-14.5-93.5 26.5-117.5 7-4 15-7 23.5-9 9.5-2 19.5-3 29-3.5l9-0.5 1 33.5-9 0.5c-7.5 0-15 1-22 2.5-4.5 1-9 2.5-13 4.5-2 1-3.5 2.5-5.5 4.5-15 16.5-8 59-5 80 2.5 17 7 43.5 0.5 59.5-4.5 10.5-11 19.5-19.5 26.5v2.5z" fill="#19252B" p-id="792"></path><path d="M727 208h27c5.5 0 10 4.5 10 10v27c0 5.5-4.5 10-10 10h-27c-5.5 0-10-4.5-10-10v-27c0-5.5 4.5-10 10-10z" fill="#FF6F00" p-id="793"></path><path d="M788 208h27c5.5 0 10 4.5 10 10v27c0 5.5-4.5 10-10 10h-27c-5.5 0-10-4.5-10-10v-27c0-5.5 4.5-10 10-10z" fill="#D50000" p-id="794"></path><path d="M666 208h27c5.5 0 10 4.5 10 10v27c0 5.5-4.5 10-10 10h-27c-5.5 0-10-4.5-10-10v-27c0-5.5 4.5-10 10-10z" fill="#8BC34A" p-id="795"></path></svg>