<?xml version="1.0" standalone="no"?><!DOCTYPE svg PUBLIC "-//W3C//DTD SVG 1.1//EN" "http://www.w3.org/Graphics/SVG/1.1/DTD/svg11.dtd"><svg t="1571750222443" class="icon" viewBox="0 0 1024 1024" version="1.1" xmlns="http://www.w3.org/2000/svg" p-id="7220" xmlns:xlink="http://www.w3.org/1999/xlink" width="200" height="200"><defs><style type="text/css"></style></defs><path d="M338.707692 228.430769h346.584616c17.723077 0 31.507692-13.784615 31.507692-31.507692V133.907692c0-51.2-43.323077-94.523077-94.523077-94.523077H401.723077c-51.2 0-94.523077 43.323077-94.523077 94.523077V196.923077c0 17.723077 13.784615 31.507692 31.507692 31.507692zM858.584615 118.153846H827.076923c-9.846154 0-15.753846 5.907692-15.753846 15.753846V196.923077c0 68.923077-57.107692 126.030769-126.030769 126.030769H338.707692c-68.923077 0-126.030769-57.107692-126.030769-126.030769V133.907692c0-9.846154-5.907692-15.753846-15.753846-15.753846H165.415385c-51.2 0-94.523077 43.323077-94.523077 94.523077v677.415385c0 51.2 43.323077 94.523077 94.523077 94.523077h693.16923c51.2 0 94.523077-43.323077 94.523077-94.523077V212.676923c0-51.2-43.323077-94.523077-94.523077-94.523077z m-116.184615 555.323077c0 7.876923-7.876923 15.753846-15.753846 15.753846h-173.292308c-5.907692 0-9.846154 3.938462-9.846154 9.846154v173.292308c0 7.876923-7.876923 15.753846-15.753846 15.753846h-31.507692c-7.876923 0-15.753846-7.876923-15.753846-15.753846v-173.292308c0-5.907692-3.938462-9.846154-9.846154-9.846154h-173.292308c-7.876923 0-15.753846-7.876923-15.753846-15.753846v-31.507692c0-7.876923 7.876923-15.753846 15.753846-15.753846h173.292308c5.907692 0 9.846154-3.938462 9.846154-9.846154v-173.292308c0-7.876923 7.876923-15.753846 15.753846-15.753846h31.507692c7.876923 0 15.753846 7.876923 15.753846 15.753846v173.292308c0 5.907692 3.938462 9.846154 9.846154 9.846154h173.292308c7.876923 0 15.753846 7.876923 15.753846 15.753846v31.507692z" p-id="7221"></path></svg>