<?xml version="1.0" standalone="no"?><!DOCTYPE svg PUBLIC "-//W3C//DTD SVG 1.1//EN" "http://www.w3.org/Graphics/SVG/1.1/DTD/svg11.dtd"><svg t="1581159539496" class="icon" viewBox="0 0 1024 1024" version="1.1" xmlns="http://www.w3.org/2000/svg" p-id="944" xmlns:xlink="http://www.w3.org/1999/xlink" width="200" height="200"><defs><style type="text/css"></style></defs><path d="M609.094 908.278c0-106.126 85.803-191.93 191.93-191.93 38.95 0 75.077 11.855 105.56 31.612v-3.387c0-60.966-71.69-136.044-128.705-145.076l76.771-127.012H675.705c32.176-46.289 53.627-107.255 53.627-174.994v-15.806c69.433-12.42 114.593-32.177 114.593-51.934 0-21.451-50.24-41.209-127.012-53.628C712.96 158.06 661.593 11.29 600.626 11.29c-27.096 0-48.547 14.112-62.66 35.563 0 10.726-10.725 21.451-24.837 21.451-12.419 0-23.144-9.032-24.838-19.757-12.983-20.887-36.128-37.257-62.66-37.257-59.272 0-114.592 134.35-127.011 168.22-66.047 12.42-108.949 30.483-108.949 51.934 0 21.451 44.596 39.515 114.594 51.934v15.806c0 67.74 19.757 128.706 53.627 174.995H178.946l76.772 125.318c-57.015 0-132.093 78.466-132.093 146.77l1.694 205.477c0 33.87 26.531 60.966 60.965 60.966h453.857c-19.757-30.483-31.047-66.046-31.047-104.432z m-140.56 54.192h-28.79l-53.627-395.15 112.335 98.224-29.918 296.926z m29.918-611.352c-7.338 62.66-39.515 76.772-57.014 76.772-42.902 0-55.321-57.015-57.015-76.772h-14.112V326.28h107.255v12.419h71.69V326.28h107.256v12.419h3.387v12.419h-14.113s-9.032 76.772-57.014 76.772c-49.112 0-58.144-76.772-58.144-76.772h-32.176z m64.353 611.352l-30.483-296.926 112.335-99.917L591.03 962.47h-28.225z" p-id="945"></path><path d="M918.439 907.149c0 1.693-1.13 2.822-2.823 2.822h-97.658v97.659c0 1.693-1.129 2.822-2.822 2.822h-43.467c-1.693 0-2.822-1.129-2.822-2.822V909.97h-97.658c-1.694 0-2.823-1.129-2.823-2.822v-43.467c0-1.693 1.129-2.822 2.823-2.822h97.658v-97.658c0-1.694 1.129-2.823 2.822-2.823h43.467c1.693 0 2.822 1.13 2.822 2.823v97.658h97.658c1.694 0 2.823 1.129 2.823 2.822v43.467z" p-id="946"></path></svg>