<?xml version="1.0" encoding="UTF-8"?>
<svg width="23px" height="21px" viewBox="0 0 23 21" version="1.1" xmlns="http://www.w3.org/2000/svg" xmlns:xlink="http://www.w3.org/1999/xlink">
    <!-- Generator: Sketch 53 (72520) - https://sketchapp.com -->
    <title>logo-mini</title>
    <desc>Created with Sketch.</desc>
    <g id="Page-1" stroke="none" stroke-width="1" fill="none" fill-rule="evenodd">
        <g id="logo-mini">
            <path d="M1.77635684e-15,-5.32907052e-15 L4.74106195,-5.32907052e-15 C10.5400518,-6.39432768e-15 15.2410619,4.70101013 15.2410619,10.5 L15.2410619,10.5 C15.2410619,16.2989899 10.5400518,21 4.74106195,21 L1.77635684e-15,21 L1.77635684e-15,-5.32907052e-15 Z" id="Rectangle-Copy-4" fill="#02DE84" transform="translate(7.620531, 10.500000) scale(-1, 1) translate(-7.620531, -10.500000) "></path>
            <path d="M11.0844087,8.68965517 L16.7064205,8.68965517 C20.1058284,8.68965517 22.8615929,11.4454197 22.8615929,14.8448276 L22.8615929,14.8448276 C22.8615929,18.2442354 20.1058284,21 16.7064205,21 L11.0844087,21 L11.0844087,8.68965517 Z" id="Rectangle-Copy-5" fill="#8200FF" opacity="0.851376488"></path>
            <rect id="Rectangle-Copy-6" fill="#21BB7C" x="11.0844087" y="0" width="4.15665326" height="8.68965517"></rect>
            <rect id="Rectangle-Copy-7" fill="#A042FF" x="11.0844087" y="8.68965517" width="4.15665326" height="12.3103448"></rect>
        </g>
    </g>
</svg>