<?xml version="1.0" standalone="no"?><!DOCTYPE svg PUBLIC "-//W3C//DTD SVG 1.1//EN" "http://www.w3.org/Graphics/SVG/1.1/DTD/svg11.dtd"><svg t="1571748189912" class="icon" viewBox="0 0 1310 1024" version="1.1" xmlns="http://www.w3.org/2000/svg" p-id="4308" xmlns:xlink="http://www.w3.org/1999/xlink" width="255.859375" height="200"><defs><style type="text/css"></style></defs><path d="M1187.84 286.72H122.88a122.88 122.88 0 0 1-122.88-122.88V122.88a122.88 122.88 0 0 1 122.88-122.88h1064.96a122.88 122.88 0 0 1 122.88 122.88v40.96a122.88 122.88 0 0 1-122.88 122.88z m40.96-163.84a40.96 40.96 0 0 0-40.96-40.96H122.88a40.96 40.96 0 0 0-40.96 40.96v40.96a40.96 40.96 0 0 0 40.96 40.96h1064.96a40.96 40.96 0 0 0 40.96-40.96V122.88zM122.88 368.64h614.4a122.88 122.88 0 0 1 122.88 122.88v40.96a122.88 122.88 0 0 1-122.88 122.88H122.88a122.88 122.88 0 0 1-122.88-122.88v-40.96a122.88 122.88 0 0 1 122.88-122.88z m-40.96 163.84a40.96 40.96 0 0 0 40.96 40.96h614.4a40.96 40.96 0 0 0 40.96-40.96v-40.96a40.96 40.96 0 0 0-40.96-40.96H122.88a40.96 40.96 0 0 0-40.96 40.96v40.96z m40.96 204.8h860.16a122.88 122.88 0 0 1 122.88 122.88v40.96a122.88 122.88 0 0 1-122.88 122.88H122.88a122.88 122.88 0 0 1-122.88-122.88v-40.96a122.88 122.88 0 0 1 122.88-122.88z m-40.96 163.84a40.96 40.96 0 0 0 40.96 40.96h860.16a40.96 40.96 0 0 0 40.96-40.96v-40.96a40.96 40.96 0 0 0-40.96-40.96H122.88a40.96 40.96 0 0 0-40.96 40.96v40.96z" p-id="4309"></path></svg>